<svg width="50" height="46" viewBox="0 0 50 46" fill="none" xmlns="http://www.w3.org/2000/svg">
<path fill-rule="evenodd" clip-rule="evenodd" d="M16.7336 46H0.29937V44.2194C0.29937 43.3999 0.969655 42.7355 1.79643 42.7355H2.0958V40.9549C2.0958 40.1354 2.76602 39.471 3.59279 39.471V13.058H1.94612L0 6.52899H8.68265V0H41.3174V6.52899H50L48.0539 13.058H46.4072V39.471C47.234 39.471 47.9042 40.1354 47.9042 40.9549V42.7355H48.2036C49.0303 42.7355 49.7006 43.3999 49.7006 44.2194V46H33.2849V44.2194C33.2849 43.3999 33.9551 42.7355 34.7819 42.7355H35.0813V40.9549C35.0813 40.1524 35.7239 39.4987 36.5269 39.4719V24.929C35.9975 19.1055 31.0129 14.5419 25 14.5419C18.9871 14.5419 14.0025 19.1055 13.4731 24.929V39.4713C14.2846 39.4887 14.9372 40.1462 14.9372 40.9549V41.8452V42.7355H15.2365C16.0633 42.7355 16.7336 43.3999 16.7336 44.2194V46Z" fill="white"/>
</svg>